<svg width="48" height="49" viewBox="0 0 48 49" fill="none" xmlns="http://www.w3.org/2000/svg">
<path d="M35 14H35.02M14 5H34C39.5228 5 44 9.47715 44 15V35C44 40.5228 39.5228 45 34 45H14C8.47715 45 4 40.5228 4 35V15C4 9.47715 8.47715 5 14 5ZM32 23.74C32.2468 25.4045 31.9625 27.1044 31.1875 28.598C30.4125 30.0916 29.1863 31.3028 27.6833 32.0593C26.1802 32.8159 24.4769 33.0792 22.8156 32.8119C21.1543 32.5445 19.6195 31.7602 18.4297 30.5703C17.2398 29.3805 16.4555 27.8457 16.1881 26.1844C15.9208 24.5231 16.1841 22.8198 16.9407 21.3167C17.6972 19.8137 18.9084 18.5875 20.402 17.8125C21.8956 17.0375 23.5955 16.7532 25.26 17C26.9578 17.2518 28.5297 18.0429 29.7434 19.2566C30.9571 20.4703 31.7482 22.0422 32 23.74Z" stroke="white" stroke-width="4" stroke-linecap="round" stroke-linejoin="round"/>
</svg>
